HIERARCHY
ROOT joint_Root
{
	OFFSET 0.0 0.0 0.0
	CHANNELS 6 Xposition Yposition Zposition Zrotation Xrotation Yrotation 
	JOINT Hips
	{
		OFFSET -0.726466 93.3139 -2.00062
		CHANNELS 6 Xposition Yposition Zposition Zrotation Xrotation Yrotation 
		JOINT Spine
		{
			OFFSET 15.7357 0.0 0.0
			CHANNELS 6 Xposition Yposition Zposition Zrotation Xrotation Yrotation 
			JOINT Chest
			{
				OFFSET 8.98455 -0.406207 0.0
				CHANNELS 6 Xposition Yposition Zposition Zrotation Xrotation Yrotation 
				JOINT Neck
				{
					OFFSET 16.3773 0.0 0.0
					CHANNELS 6 Xposition Yposition Zposition Zrotation Xrotation Yrotation 
					JOINT Head
					{
						OFFSET 6.45672 0.0 0.0
						CHANNELS 6 Xposition Yposition Zposition Zrotation Xrotation Yrotation 
						End Site
						{
							OFFSET 0.0 0.0 0.0
						}
					}
				}
				JOINT Shoulder_L
				{
					OFFSET 12.9942 -0.242716 4.98039
					CHANNELS 6 Xposition Yposition Zposition Zrotation Xrotation Yrotation 
					JOINT UpperArm_L
					{
						OFFSET 5.34809 0.0 0.0
						CHANNELS 6 Xposition Yposition Zposition Zrotation Xrotation Yrotation 
						JOINT LowerArm_L
						{
							OFFSET 24.3286 1.87007e-05 0.0
							CHANNELS 6 Xposition Yposition Zposition Zrotation Xrotation Yrotation 
							JOINT Hand_L
							{
								OFFSET 22.2916 0.0 0.0
								CHANNELS 6 Xposition Yposition Zposition Zrotation Xrotation Yrotation 
								End Site
								{
									OFFSET 0.0 0.0 0.0
								}
							}
						}
					}
				}
				JOINT Shoulder_R
				{
					OFFSET 12.9945 -0.242716 -4.98039
					CHANNELS 6 Xposition Yposition Zposition Zrotation Xrotation Yrotation 
					JOINT UpperArm_R
					{
						OFFSET -5.34813 0.0 0.0
						CHANNELS 6 Xposition Yposition Zposition Zrotation Xrotation Yrotation 
						JOINT LowerArm_R
						{
							OFFSET -24.3289 0.000322201 0.0
							CHANNELS 6 Xposition Yposition Zposition Zrotation Xrotation Yrotation 
							JOINT Hand_R
							{
								OFFSET -22.2915 -0.000108084 0.0
								CHANNELS 6 Xposition Yposition Zposition Zrotation Xrotation Yrotation 
								End Site
								{
									OFFSET 0.0 0.0 0.0
								}
							}
						}
					}
				}
			}
		}
		JOINT UpperLeg_L
		{
			OFFSET -2.19248 -6.46944 0.0
			CHANNELS 6 Xposition Yposition Zposition Zrotation Xrotation Yrotation 
			JOINT LowerLeg_L
			{
				OFFSET 39.0811 0.0 -1.23785e-05
				CHANNELS 6 Xposition Yposition Zposition Zrotation Xrotation Yrotation 
				JOINT Foot_L
				{
					OFFSET 40.9854 0.0 -1.26872e-05
					CHANNELS 6 Xposition Yposition Zposition Zrotation Xrotation Yrotation 
					JOINT Toes_L
					{
						OFFSET 11.7543 0.0 0.0
						CHANNELS 6 Xposition Yposition Zposition Zrotation Xrotation Yrotation 
						End Site
						{
							OFFSET 0.0 0.0 0.0
						}
					}
				}
			}
		}
		JOINT UpperLeg_R
		{
			OFFSET -2.19251 6.46944 0.0
			CHANNELS 6 Xposition Yposition Zposition Zrotation Xrotation Yrotation 
			JOINT LowerLeg_R
			{
				OFFSET -39.0811 -0.00228153 -0.0401928
				CHANNELS 6 Xposition Yposition Zposition Zrotation Xrotation Yrotation 
				JOINT Foot_R
				{
					OFFSET -40.9854 0.0 0.0
					CHANNELS 6 Xposition Yposition Zposition Zrotation Xrotation Yrotation 
					JOINT Toes_R
					{
						OFFSET -11.7543 0.0 0.0
						CHANNELS 6 Xposition Yposition Zposition Zrotation Xrotation Yrotation 
						End Site
						{
							OFFSET 0.0 0.0 0.0
						}
					}
				}
			}
		}
	}
}
MOTION
Frames:	4
Frame Time:	0.0333333
0.000000 0.000000 0.000000 0.000000 0.000000 -0.000000 -1.035860 92.776900 1.086590 89.033000 -2.605690 1.894990 15.735700 0.000005 -0.000001 99.303100 88.091800 -99.354100 8.984550 -0.406207 -0.000000 -3.999640 0.621777 -0.080187 16.377300 -0.000001 -0.000001 4.279680 -2.575490 3.705800 6.456720 -0.000001 -0.000000 11.090000 -2.154360 -3.510020 12.994200 -0.242716 4.980390 -87.862500 -7.759780 -74.547600 5.348090 -0.000007 -0.000001 -79.033400 -28.200200 -86.628700 24.328600 0.000019 0.000005 13.313500 1.254710 -84.713300 22.291600 -0.000001 0.000005 15.528500 5.592110 -10.881600 12.994500 -0.242716 -4.980390 90.110700 -0.426775 -75.462400 -5.348130 -0.000001 -0.000004 -68.585400 -27.542200 -94.667400 -24.328900 0.000322 -0.000009 13.281100 2.821320 -78.222900 -22.291500 -0.000108 -0.000004 20.001700 5.488920 -6.093740 -2.192480 -6.469440 -0.000000 -176.166000 -8.321600 -0.856486 39.081100 -0.000007 -0.000012 -0.069717 0.227578 17.031900 40.985400 -0.000006 -0.000013 -0.671837 4.208370 -64.344700 11.754300 -0.000000 0.000003 -0.000003 -0.000039 -16.579000 -2.192510 6.469440 -0.000001 179.135000 11.301600 -178.814000 -39.081100 -0.002282 -0.040193 -0.053775 0.223129 14.355800 -40.985400 0.000008 0.000006 1.682060 7.288180 -63.982200 -11.754300 -0.000006 -0.000006 -0.005819 -0.069186 -19.388700
0.000000 0.000000 0.000000 0.000000 0.000000 -0.000000 -1.079770 92.786200 1.100130 89.002000 -2.615330 1.798600 15.735700 0.000005 -0.000001 99.307100 88.099700 -99.355500 8.984550 -0.406207 -0.000000 -4.015360 0.619210 -0.075315 16.377300 -0.000001 -0.000001 4.151020 -2.578130 3.706140 6.456720 -0.000001 -0.000000 11.063000 -2.123500 -3.600460 12.994200 -0.242716 4.980390 -87.863600 -7.727710 -74.494400 5.348090 -0.000007 -0.000001 -79.009000 -28.242000 -86.686600 24.328600 0.000019 0.000005 13.372800 1.300870 -84.545000 22.291600 -0.000001 0.000005 15.391600 5.590030 -10.763700 12.994500 -0.242716 -4.980390 90.112100 -0.428424 -75.334600 -5.348130 -0.000001 -0.000004 -68.421100 -27.525900 -94.647800 -24.328900 0.000322 -0.000009 13.271600 2.860120 -78.057000 -22.291500 -0.000108 -0.000004 20.031000 5.488910 -6.093310 -2.192480 -6.469440 -0.000000 -176.128000 -8.275710 -0.921700 39.081100 -0.000007 -0.000012 -0.069463 0.227670 16.967200 40.985400 -0.000006 -0.000013 -0.710269 4.159830 -64.307800 11.754300 -0.000000 0.000003 -0.000002 -0.000033 -16.578800 -2.192510 6.469440 -0.000001 179.223000 11.392400 -178.852000 -39.081100 -0.002282 -0.040193 -0.051333 0.215337 14.244000 -40.985400 0.000008 0.000006 1.804520 7.325640 -63.948600 -11.754300 -0.000006 -0.000006 -0.005605 -0.067208 -19.308100
0.000000 0.000000 0.000000 0.000000 0.000000 -0.000000 -1.115010 92.788800 1.110930 89.019100 -2.574880 1.691620 15.735700 0.000005 -0.000001 98.630400 88.111500 -98.687400 8.984550 -0.406207 -0.000000 -4.031700 0.572238 -0.093919 16.377300 -0.000001 -0.000001 4.023840 -2.533410 3.644790 6.456720 -0.000001 -0.000000 10.962200 -2.093060 -3.633070 12.994200 -0.242716 4.980390 -87.850700 -7.683590 -74.320500 5.348090 -0.000007 -0.000001 -79.006700 -28.246900 -86.861600 24.328600 0.000019 0.000005 13.364000 1.371320 -84.247800 22.291600 -0.000001 0.000005 15.232200 5.590310 -10.779600 12.994500 -0.242716 -4.980390 90.105300 -0.398904 -75.207700 -5.348130 -0.000001 -0.000004 -67.953600 -27.720600 -94.543200 -24.328900 0.000322 -0.000009 13.067900 2.831190 -77.988800 -22.291500 -0.000108 -0.000004 20.259100 5.484630 -5.927000 -2.192480 -6.469440 -0.000000 -176.123000 -8.299630 -0.996898 39.081100 -0.000007 -0.000012 -0.070655 0.232458 16.906600 40.985400 -0.000006 -0.000013 -0.736251 4.210240 -64.276700 11.754300 -0.000000 0.000003 -0.000003 -0.000042 -16.579200 -2.192510 6.469440 -0.000001 179.254000 11.418600 -178.939000 -39.081100 -0.002282 -0.040193 -0.051222 0.215173 14.226700 -40.985400 0.000008 0.000006 1.856920 7.300030 -63.962400 -11.754300 -0.000006 -0.000006 -0.005570 -0.066874 -19.294500
0.000000 0.000000 0.000000 0.000000 0.000000 -0.000000 -1.146290 92.809100 1.114870 89.006700 -2.606100 1.560290 15.735700 0.000005 -0.000001 98.476300 88.122500 -98.537100 8.984550 -0.406207 -0.000000 -4.051810 0.559379 -0.101854 16.377300 -0.000001 -0.000001 3.964080 -2.542280 3.613780 6.456720 -0.000001 -0.000000 10.800600 -2.087430 -3.692480 12.994200 -0.242716 4.980390 -87.839600 -7.631870 -74.142900 5.348090 -0.000007 -0.000001 -78.901200 -28.302600 -86.980500 24.328600 0.000019 0.000005 13.185000 1.404540 -84.027000 22.291600 -0.000001 0.000005 15.282200 5.588950 -10.702900 12.994500 -0.242716 -4.980390 90.095200 -0.357761 -75.092400 -5.348130 -0.000001 -0.000004 -67.064700 -28.201800 -94.201300 -24.328900 0.000322 -0.000009 12.963100 2.792860 -78.050400 -22.291500 -0.000108 -0.000004 20.503800 5.480610 -5.771980 -2.192480 -6.469440 -0.000000 -176.121000 -8.257020 -1.024100 39.081100 -0.000007 -0.000012 -0.068447 0.228006 16.709600 40.985400 -0.000006 -0.000013 -0.771402 4.143030 -64.182300 11.754300 -0.000000 0.000003 -0.000003 -0.000045 -16.579300 -2.192510 6.469440 -0.000001 179.352000 11.411400 -179.008000 -39.081100 -0.002282 -0.040193 -0.045904 0.196148 14.090900 -40.985400 0.000008 0.000006 2.163610 7.267500 -63.940000 -11.754300 -0.000006 -0.000006 -0.005596 -0.067117 -19.304400
